# This file uses centimeters as units for non-parametric coordinates.

mtllib pizarron.mtl
g default
v -3.162891 -0.616393 0.203588
v -3.162891 -0.594448 0.225533
v -3.184836 -0.594448 0.203588
v 3.184836 -0.594448 0.203588
v 3.162891 -0.594448 0.225533
v 3.162891 -0.616393 0.203588
v 3.162891 -0.445594 0.203588
v 3.162891 -0.467539 0.225533
v 3.184836 -0.467539 0.203588
v -3.184836 -0.467539 0.203588
v -3.162891 -0.467539 0.225533
v -3.162891 -0.445594 0.203588
v 3.162891 -0.467539 -0.094715
v 3.162891 -0.445594 -0.072770
v 3.184836 -0.467539 -0.072770
v -3.184836 -0.467539 -0.072770
v -3.162891 -0.445594 -0.072770
v -3.162891 -0.467539 -0.094715
v 3.162891 -0.616393 -0.072770
v 3.162891 -0.594448 -0.094715
v 3.184836 -0.594448 -0.072770
v -3.184836 -0.594448 -0.072770
v -3.162891 -0.594448 -0.094715
v -3.162891 -0.616393 -0.072770
v -2.850000 1.286280 0.023044
v -2.828055 1.286280 0.001099
v -2.828055 1.308225 0.023044
v -2.828055 -0.361775 0.023044
v -2.828055 -0.339830 0.001099
v -2.850000 -0.339830 0.023044
v 2.850000 -0.339830 0.023044
v 2.828055 -0.339830 0.001099
v 2.828055 -0.361775 0.023044
v 2.828055 1.308225 0.023044
v 2.828055 1.286280 0.001099
v 2.850000 1.286280 0.023044
v 2.850813 1.330513 0.088889
v 2.828254 1.308225 0.067143
v 2.850000 1.286762 0.067426
v 2.872448 1.307435 0.088889
v -2.850000 1.286280 0.066944
v -2.828055 1.308225 0.066944
v -2.871945 1.330170 0.088889
v -2.983610 1.431077 0.088889
v -2.983610 1.453022 0.066944
v -3.005555 1.431077 0.066944
v 2.982793 1.409846 0.088889
v 3.005555 1.431518 0.067385
v 2.984495 1.453022 0.067829
v 2.957474 1.430258 0.088889
v 2.983610 1.431077 -0.088889
v 2.983610 1.453022 -0.066944
v 3.005555 1.431077 -0.066944
v -3.005555 1.431077 -0.066944
v -2.983610 1.453022 -0.066944
v -2.983610 1.431077 -0.088889
v 2.828055 -0.361775 0.066944
v 2.871945 -0.383720 0.088889
v 2.850000 -0.339830 0.066944
v -2.869566 -0.358576 0.088889
v -2.840962 -0.383821 0.088889
v -2.828423 -0.361775 0.067312
v -2.850000 -0.339830 0.066944
v -2.984464 -0.824756 0.067798
v -2.981425 -0.802454 0.088889
v -2.982762 -0.706311 0.088889
v -3.005555 -0.803707 0.067840
v 3.005555 -0.802811 0.066944
v 2.983610 -0.802811 0.088889
v 2.983610 -0.824756 0.066944
v 2.983610 -0.802811 -0.088889
v 3.005555 -0.802811 -0.066944
v 2.983610 -0.824756 -0.066944
v -3.005555 -0.802811 -0.066944
v -2.983610 -0.802811 -0.088889
v -2.983610 -0.824756 -0.066944
v -3.030547 -0.858852 0.116857
v -3.037311 -0.840649 0.142129
v -3.057834 -0.842873 0.119835
v 3.060700 -0.842907 0.119833
v 3.040092 -0.840521 0.142175
v 3.033386 -0.858852 0.116863
v 3.155980 -0.615563 0.198758
v 3.146196 -0.641987 0.214388
v 3.169891 -0.642091 0.193109
v -3.166346 -0.642081 0.193095
v -3.142244 -0.642282 0.214282
v -3.152392 -0.615563 0.198748
v 3.144937 -0.638974 -0.091535
v 3.154692 -0.615563 -0.070126
v 3.170165 -0.641587 -0.070126
v -3.166621 -0.641572 -0.070122
v -3.151848 -0.615563 -0.070655
v -3.141431 -0.638964 -0.091535
v 3.033589 -0.858852 -0.069117
v 3.039423 -0.837647 -0.091535
v 3.060839 -0.842651 -0.069117
v -3.057972 -0.842617 -0.069119
v -3.036552 -0.837644 -0.091535
v -3.030744 -0.858852 -0.069119
v -2.828056 1.330173 0.088889
v -2.871883 1.286249 0.088889
v 2.828055 -0.383721 0.088889
v 2.871958 -0.339836 0.088889
vt 0.375861 0.982869
vt 0.375000 0.982869
vt 0.375000 0.767132
vt 0.375861 -0.000000
vt 0.375861 0.032122
vt 0.625000 0.982869
vt 0.624139 0.982869
vt 0.625000 0.767132
vt 0.642132 0.032122
vt 0.625000 0.267132
vt 0.624139 0.267132
vt 0.375861 0.217878
vt 0.375000 0.267132
vt 0.375861 0.267132
vt 0.375000 0.482868
vt 0.625000 0.532122
vt 0.625000 0.717878
vt 0.624139 0.532122
vt 0.375861 0.482869
vt 0.375000 0.532122
vt 0.375861 0.532122
vt 0.375000 0.717878
vt 0.624139 0.767132
vt 0.375861 0.767132
vt 0.375861 0.717878
vt 0.375000 0.487339
vt 0.375000 0.462013
vt 0.375000 0.503285
vt 0.375963 0.503285
vt 0.375000 0.762661
vt 0.375000 0.787987
vt 0.375962 0.762661
vt 0.862339 0.003285
vt 0.862339 0.000000
vt 0.837013 0.000000
vt 0.625000 0.746715
vt 0.624038 0.503285
vt 0.625000 0.487339
vt 0.618565 0.236554
vt 0.375913 0.247591
vt 0.623000 0.247502
vt 0.375913 0.280861
vt 0.375000 0.469139
vt 0.655240 0.247640
vt 0.624054 0.245256
vt 0.625000 0.280240
vt 0.875000 0.247591
vt 0.844139 0.247591
vt 0.875000 0.002409
vt 0.624087 0.502409
vt 0.375913 0.469139
vt 0.375000 0.502409
vt 0.375913 0.502409
vt 0.375000 0.747591
vt 0.375948 0.012998
vt 0.375877 0.970341
vt 0.375000 0.970399
vt 0.375000 0.780861
vt 0.375877 0.000000
vt 0.624087 0.002409
vt 0.655862 0.000000
vt 0.844138 0.002411
vt 0.624087 0.780861
vt 0.375913 0.780861
vt 0.375913 0.747591
vt 0.375764 0.979463
vt 0.375000 0.982414
vt 0.375000 0.774647
vt 0.375616 0.000000
vt 0.375890 0.018705
vt 0.625000 0.982764
vt 0.624236 0.979470
vt 0.625000 0.775009
vt 0.642260 0.016385
vt 0.624433 0.274474
vt 0.623887 0.269999
vt 0.375983 0.222544
vt 0.375563 0.274486
vt 0.376111 0.270007
vt 0.375552 0.483035
vt 0.625000 0.526742
vt 0.625000 0.733352
vt 0.623908 0.524057
vt 0.376132 0.483457
vt 0.375000 0.526727
vt 0.376045 0.524047
vt 0.375000 0.733317
vt 0.624244 0.774684
vt 0.375756 0.774682
vt 0.375947 0.728207
vt 0.624139 0.032122
vt 0.624139 0.217878
vt 0.624139 0.482869
vt 0.624139 0.717878
vt 0.857868 0.032122
vt 0.857868 0.217878
vt 0.142131 0.032122
vt 0.357868 0.032122
vt 0.357868 0.217878
vt 0.142131 0.217878
vt 0.375963 0.746715
vt 0.624038 0.746715
vt 0.624046 0.461898
vt 0.375963 0.487339
vt 0.624038 0.487339
vt 0.624124 0.279616
vt 0.624087 0.469139
vt 0.619465 0.234020
vt 0.619444 0.048406
vt 0.381845 0.048395
vt 0.376004 0.002448
vt 0.655859 0.002411
vt 0.837013 0.003285
vt 0.836735 0.246787
vt 0.862339 0.246715
vt 0.624087 0.747591
vt 0.375946 0.788200
vt 0.624038 0.787987
vt 0.380655 0.051167
vt 0.380556 0.236517
vt 0.624087 0.969139
vt 0.162987 0.246715
vt 0.162987 0.003285
vt 0.137661 0.003285
vt 0.137661 0.246715
vt 0.155859 0.002411
vt 0.344139 0.247591
vt 0.155861 0.247591
vt 0.624140 0.018836
vt 0.624067 0.222847
vt 0.623836 0.483038
vt 0.624011 0.728210
vt 0.850316 0.016648
vt 0.851427 0.223258
vt 0.149682 0.016683
vt 0.357743 0.016420
vt 0.358156 0.222751
vt 0.148578 0.223273
vt 0.624139 0.000000
vt 0.642132 0.217878
vt 0.625000 0.482868
vt 0.375000 0.746715
vt 0.624037 0.762661
vt 0.625000 0.503285
vt 0.625000 0.461735
vt 0.625000 0.449352
vt 0.375000 0.280861
vt 0.625000 0.469139
vt 0.381469 0.050815
vt 0.345397 0.002312
vt 0.624087 0.000000
vt 0.844141 0.000000
vt 0.624412 0.000588
vt 0.641829 0.222740
vt 0.624444 0.483038
vt 0.625000 0.449352
vt 0.381469 0.231699
vt 0.381469 0.053224
vt 0.375962 0.462013
vt 0.382366 0.050815
vt 0.618531 0.231752
vt 0.618531 0.053224
vt 0.617618 0.050815
vt 0.380744 0.234810
vt 0.379030 0.461809
vt 0.376342 0.461945
vt 0.381010 0.232397
vt 0.617623 0.048063
vt 0.619556 0.053213
vn -0.707105 -0.707108 0.000000
vn -0.707105 -0.707108 0.000000
vn -0.707105 -0.707108 0.000000
vn -0.707105 -0.707108 0.000000
vn 0.000000 -0.707107 0.707106
vn 0.000000 -0.707107 0.707106
vn 0.000000 -0.707107 0.707106
vn 0.000000 -0.707107 0.707106
vn -0.707108 0.000000 0.707106
vn -0.707108 0.000000 0.707106
vn -0.707108 0.000000 0.707106
vn -0.707108 0.000000 0.707106
vn 0.707105 -0.707108 0.000000
vn 0.707105 -0.707108 0.000000
vn 0.707105 -0.707108 0.000000
vn 0.707105 -0.707108 0.000000
vn 0.707108 0.000000 0.707106
vn 0.707108 0.000000 0.707106
vn 0.707108 0.000000 0.707106
vn 0.707108 0.000000 0.707106
vn 0.707105 0.707108 0.000000
vn 0.707105 0.707108 0.000000
vn 0.707105 0.707108 0.000000
vn 0.707105 0.707108 0.000000
vn 0.000000 0.707107 0.707106
vn 0.000000 0.707107 0.707106
vn 0.000000 0.707107 0.707106
vn 0.000000 0.707107 0.707106
vn -0.707105 0.707108 0.000000
vn -0.707105 0.707108 0.000000
vn -0.707105 0.707108 0.000000
vn -0.707105 0.707108 0.000000
vn 0.707108 0.000000 -0.707106
vn 0.707108 0.000000 -0.707106
vn 0.707108 0.000000 -0.707106
vn 0.707108 0.000000 -0.707106
vn 0.000000 0.707107 -0.707107
vn 0.000000 0.707107 -0.707107
vn 0.000000 0.707107 -0.707107
vn 0.000000 0.707107 -0.707107
vn -0.707108 0.000000 -0.707106
vn -0.707108 0.000000 -0.707106
vn -0.707108 0.000000 -0.707106
vn -0.707108 0.000000 -0.707106
vn 0.000000 -0.707107 -0.707107
vn 0.000000 -0.707107 -0.707107
vn 0.000000 -0.707107 -0.707107
vn 0.000000 -0.707107 -0.707107
vn 0.707106 -0.707108 0.000000
vn 0.707106 -0.707108 0.000000
vn 0.707106 -0.707108 0.000000
vn 0.707106 -0.707108 0.000000
vn 0.707108 0.000000 0.707106
vn 0.707108 0.000000 0.707106
vn 0.707108 0.000000 0.707106
vn 0.707108 0.000000 0.707106
vn 0.000000 -0.707107 0.707107
vn 0.000000 -0.707107 0.707107
vn 0.000000 -0.707107 0.707107
vn 0.000000 -0.707107 0.707107
vn 0.710068 0.704127 0.002969
vn 0.710068 0.704127 0.002969
vn 0.710068 0.704127 0.002969
vn 0.710068 0.704127 0.002969
vn 0.000000 0.707107 0.707106
vn 0.000000 0.707107 0.707106
vn 0.000000 0.707107 0.707106
vn 0.000000 0.707107 0.707106
vn -0.707105 0.707108 0.000000
vn -0.707105 0.707108 0.000000
vn -0.707105 0.707108 0.000000
vn -0.707105 0.707108 0.000000
vn -0.707108 0.000000 0.707106
vn -0.707108 0.000000 0.707106
vn -0.707108 0.000000 0.707106
vn -0.707108 0.000000 0.707106
vn -0.704811 -0.709374 0.005448
vn -0.704811 -0.709374 0.005448
vn -0.704811 -0.709374 0.005448
vn -0.704811 -0.709374 0.005448
vn -0.000000 0.000000 1.000000
vn 0.000000 0.000000 1.000000
vn 0.000000 0.000000 1.000000
vn -0.000000 0.000000 1.000000
vn -0.692931 0.000013 0.721004
vn -0.692931 0.000013 0.721004
vn -0.686645 -0.020032 0.726717
vn -0.692812 -0.000378 0.721119
vn -0.000006 0.693240 0.720707
vn -0.000006 0.693240 0.720707
vn 0.001489 0.692361 0.721550
vn 0.004637 0.690504 0.723314
vn -0.707110 0.707104 0.000000
vn -0.707110 0.707104 0.000000
vn -0.707110 0.707104 0.000000
vn -0.707110 0.707104 0.000000
vn 0.696937 0.000057 0.717132
vn 0.696937 0.000057 0.717132
vn 0.696937 0.000057 0.717132
vn 0.696937 0.000057 0.717132
vn 0.710708 0.703478 -0.003490
vn 0.710708 0.703478 -0.003490
vn 0.710708 0.703478 -0.003490
vn 0.710708 0.703478 -0.003490
vn 0.707108 0.000000 -0.707106
vn 0.707108 0.000000 -0.707106
vn 0.707108 0.000000 -0.707106
vn 0.707108 0.000000 -0.707106
vn 0.000000 0.707106 -0.707108
vn 0.000000 0.707106 -0.707108
vn 0.000000 0.707106 -0.707108
vn 0.000000 0.707106 -0.707108
vn -0.707108 0.000000 -0.707106
vn -0.707108 0.000000 -0.707106
vn -0.707108 0.000000 -0.707106
vn -0.707108 0.000000 -0.707106
vn 0.000000 0.000000 1.000000
vn -0.000000 0.000000 1.000000
vn -0.000000 0.000000 1.000000
vn 0.000000 0.000000 1.000000
vn -0.706759 -0.707439 -0.004592
vn -0.706759 -0.707439 -0.004592
vn -0.706759 -0.707439 -0.004592
vn -0.706759 -0.707439 -0.004592
vn 0.000030 -0.697227 0.716851
vn 0.000030 -0.697227 0.716851
vn 0.000030 -0.697227 0.716851
vn 0.000030 -0.697227 0.716851
vn 0.707109 -0.707105 0.000000
vn 0.707109 -0.707105 0.000000
vn 0.707109 -0.707105 0.000000
vn 0.707109 -0.707105 0.000000
vn 0.000000 -0.707107 -0.707107
vn 0.000000 -0.707107 -0.707107
vn 0.000000 -0.707107 -0.707107
vn 0.000000 -0.707107 -0.707107
vn -0.015046 -0.819003 0.573592
vn -0.580828 -0.720384 0.379059
vn -0.508748 -0.860916 -0.000133
vn -0.508748 -0.860916 -0.000133
vn -0.025591 -0.805726 0.591735
vn 0.015044 -0.819018 0.573571
vn 0.025560 -0.805774 0.591671
vn -0.577562 -0.533834 0.617611
vn -0.577562 -0.533834 0.617611
vn 0.579737 -0.721649 0.378323
vn 0.507602 -0.861592 -0.000125
vn 0.507602 -0.861592 -0.000125
vn 0.576985 -0.535677 0.616554
vn 0.576985 -0.535677 0.616554
vn 0.872777 0.488117 -0.001202
vn 0.872777 0.488117 -0.001202
vn 0.872777 0.488117 -0.001202
vn 0.872777 0.488117 -0.001202
vn -0.000020 0.505847 0.862623
vn -0.000020 0.505847 0.862623
vn -0.000020 0.505847 0.862623
vn -0.000020 0.505847 0.862623
vn -0.877361 0.479831 0.000014
vn -0.877361 0.479831 0.000014
vn -0.877361 0.479831 0.000014
vn -0.877361 0.479831 0.000014
vn 0.616221 -0.332990 -0.713715
vn 0.616221 -0.332990 -0.713715
vn 0.611589 -0.347271 -0.710888
vn 0.023525 -0.718930 -0.694684
vn 0.000032 0.670342 -0.742052
vn 0.000032 0.670342 -0.742052
vn 0.000032 0.670342 -0.742052
vn 0.000032 0.670342 -0.742052
vn -0.617143 -0.331459 -0.713631
vn -0.617143 -0.331459 -0.713631
vn -0.023528 -0.718915 -0.694700
vn -0.612516 -0.345798 -0.710808
vn 0.000574 -0.726519 -0.687146
vn -0.000575 -0.726519 -0.687146
vn 0.000000 0.000000 1.000000
vn 0.000000 0.000000 1.000000
vn 0.000000 0.000000 1.000000
vn 0.000000 0.000000 1.000000
vn 0.000000 1.000000 0.000000
vn 0.000000 1.000000 0.000000
vn 0.000000 1.000000 0.000000
vn 0.000000 1.000000 0.000000
vn 0.000000 0.000000 -1.000000
vn 0.000000 0.000000 -1.000000
vn 0.000000 0.000000 -1.000000
vn 0.000000 0.000000 -1.000000
vn 0.000000 -1.000000 0.000000
vn 0.000000 -1.000000 0.000000
vn 0.000000 -1.000000 0.000000
vn 0.000000 -1.000000 0.000000
vn 1.000000 0.000000 0.000000
vn 1.000000 0.000000 0.000000
vn 1.000000 0.000000 0.000000
vn 1.000000 0.000000 0.000000
vn -1.000000 0.000000 0.000000
vn -1.000000 0.000000 0.000000
vn -1.000000 0.000000 0.000000
vn -1.000000 0.000000 0.000000
vn 0.000000 0.000000 1.000000
vn 0.000000 0.000000 1.000000
vn 0.000000 0.000000 1.000000
vn 0.000000 0.000000 1.000000
vn 0.000000 -1.000000 0.000001
vn 0.000000 -1.000000 0.000001
vn 0.000000 -1.000000 0.000001
vn 0.000000 -1.000000 0.000001
vn 0.000000 1.000000 -0.000001
vn 0.000000 1.000000 -0.000001
vn 0.000000 1.000000 -0.000001
vn 0.000000 1.000000 -0.000001
vn 0.000000 0.000000 1.000000
vn 0.000000 0.000000 1.000000
vn 0.000000 0.000000 1.000000
vn 0.000000 0.000000 1.000000
vn 1.000000 -0.000000 0.000000
vn 1.000000 -0.000000 0.000000
vn 1.000000 -0.000000 0.000000
vn 1.000000 -0.000000 0.000000
vn -1.000000 0.000000 0.000000
vn -1.000000 0.000000 0.000000
vn -1.000000 0.000000 0.000000
vn -1.000000 0.000000 0.000000
vn 0.000000 0.000000 -1.000000
vn 0.000000 0.000000 -1.000000
vn 0.000000 0.000000 -1.000000
vn 0.000000 0.000000 -1.000000
vn 0.000000 1.000000 0.000001
vn 0.000000 1.000000 0.000001
vn 0.000000 1.000000 0.000001
vn 0.000000 1.000000 0.000001
vn -0.000000 0.000000 1.000000
vn -0.000000 0.000000 1.000000
vn -0.000000 0.000000 1.000000
vn -0.000000 0.000000 1.000000
vn 0.000000 -1.000000 -0.000000
vn 0.000000 -1.000000 -0.000000
vn 0.000000 -1.000000 -0.000000
vn 0.000000 -1.000000 -0.000000
vn 1.000000 0.000000 0.000000
vn 1.000000 0.000000 0.000000
vn 1.000000 0.000000 0.000000
vn 1.000000 0.000000 0.000000
vn -1.000000 0.000000 0.000000
vn -1.000000 0.000000 0.000000
vn -1.000000 0.000000 0.000000
vn -1.000000 0.000000 0.000000
vn 0.000000 -0.341821 0.939765
vn 0.000000 -0.341821 0.939765
vn 0.000000 -0.341821 0.939765
vn 0.000000 -0.341821 0.939765
vn 0.000000 1.000000 0.000000
vn 0.000000 1.000000 0.000000
vn 0.000000 1.000000 0.000000
vn 0.000000 1.000000 0.000000
vn 0.000000 0.000000 -1.000000
vn 0.000000 0.000000 -1.000000
vn 0.000000 0.000000 -1.000000
vn 0.000000 0.000000 -1.000000
vn 0.000000 -1.000000 -0.000000
vn 0.000000 -1.000000 -0.000000
vn 0.000000 -1.000000 -0.000000
vn 0.000000 -1.000000 -0.000000
vn 0.878530 -0.477688 -0.000000
vn 0.878530 -0.477688 -0.000000
vn 0.878530 -0.477688 -0.000000
vn 0.878530 -0.477688 -0.000000
vn -0.879750 -0.475436 -0.000000
vn -0.879750 -0.475436 -0.000000
vn -0.879750 -0.475436 -0.000000
vn -0.879750 -0.475436 -0.000000
vn -0.577347 -0.577358 0.577345
vn -0.577347 -0.577358 0.577345
vn -0.577347 -0.577358 0.577345
vn 0.577347 -0.577358 0.577345
vn 0.577347 -0.577358 0.577345
vn 0.577347 -0.577358 0.577345
vn 0.577347 0.577358 0.577345
vn 0.577347 0.577358 0.577345
vn 0.577347 0.577358 0.577345
vn -0.577347 0.577358 0.577345
vn -0.577347 0.577358 0.577345
vn -0.577347 0.577358 0.577345
vn 0.577347 0.577358 -0.577345
vn 0.577348 0.577358 -0.577345
vn 0.577348 0.577358 -0.577345
vn -0.577348 0.577358 -0.577345
vn -0.577348 0.577358 -0.577345
vn -0.577347 0.577358 -0.577345
vn 0.577348 -0.577358 -0.577345
vn 0.577347 -0.577358 -0.577345
vn 0.577348 -0.577358 -0.577345
vn -0.577348 -0.577358 -0.577345
vn -0.577347 -0.577358 -0.577345
vn -0.577348 -0.577358 -0.577345
vn 0.577348 -0.577349 0.577353
vn 0.577348 -0.577349 0.577353
vn 0.577348 -0.577349 0.577353
vn 0.577350 0.577352 0.577349
vn 0.577350 0.577352 0.577349
vn 0.577350 0.577352 0.577349
vn -0.577350 0.577352 0.577349
vn -0.577350 0.577352 0.577349
vn -0.577350 0.577352 0.577349
vn -0.577348 -0.577349 0.577353
vn -0.577348 -0.577349 0.577353
vn -0.577348 -0.577349 0.577353
vn -0.411232 -0.395289 0.821362
vn -0.411232 -0.395289 0.821362
vn -0.695583 -0.006752 0.718414
vn -0.691776 -0.014106 0.721974
vn -0.577356 0.577348 0.577348
vn -0.577356 0.577348 0.577348
vn -0.577356 0.577348 0.577348
vn 0.366188 0.396262 0.841952
vn 0.366188 0.396262 0.841952
vn 0.577356 0.577348 -0.577348
vn 0.577356 0.577348 -0.577348
vn 0.577356 0.577348 -0.577348
vn -0.577356 0.577348 -0.577348
vn -0.577356 0.577348 -0.577348
vn -0.577356 0.577348 -0.577348
vn 0.438007 0.471735 0.765256
vn 0.003466 0.702152 0.712019
vn 0.002661 0.702419 0.711759
vn 0.438007 0.471735 0.765256
vn -0.648587 -0.124389 0.750908
vn -0.648587 -0.124389 0.750908
vn 0.577352 -0.577345 0.577354
vn 0.577352 -0.577345 0.577354
vn 0.577352 -0.577345 0.577354
vn 0.577352 -0.577345 -0.577354
vn 0.577352 -0.577345 -0.577354
vn 0.577352 -0.577345 -0.577354
vn -0.577352 -0.577345 -0.577354
vn -0.577352 -0.577345 -0.577354
vn -0.577352 -0.577345 -0.577354
vn 0.656605 0.188814 0.730219
vn 0.656605 0.188814 0.730219
vn 0.656605 0.188814 0.730219
vn -0.648127 0.183522 0.739088
vn -0.648127 0.183522 0.739088
vn -0.648127 0.183522 0.739088
vn 0.623014 0.370400 -0.688954
vn 0.623014 0.370400 -0.688954
vn 0.623014 0.370400 -0.688954
vn -0.628773 0.342839 -0.697930
vn -0.628773 0.342839 -0.697930
vn -0.628773 0.342839 -0.697930
vn 0.000009 -0.702718 0.711469
vn 0.000009 -0.702718 0.711469
vn 0.000009 -0.702718 0.711469
vn 0.000009 -0.702718 0.711469
vn 0.726929 0.000515 0.686712
vn 0.726929 0.000515 0.686712
vn 0.726929 0.000515 0.686712
vn 0.726929 0.000515 0.686712
vn 0.578169 -0.577312 0.576569
vn 0.578169 -0.577312 0.576569
vn 0.578169 -0.577312 0.576569
vn 0.578169 -0.577312 0.576569
vn 0.000017 0.703292 0.710901
vn 0.000017 0.703292 0.710901
vn -0.699028 -0.000001 0.715094
vn -0.699028 -0.000001 0.715094
vn -0.577179 0.577339 0.577532
vn -0.577179 0.577339 0.577532
vn -0.577179 0.577339 0.577532
vn -0.577179 0.577339 0.577532
s off
g pCube7
usemtl initialShadingGroup1
f 1/1/1 3/2/2 22/3/3 24/24/4
f 2/5/5 1/4/6 6/139/7 5/91/8
f 3/98/9 2/5/10 11/12/11 10/99/12
f 4/6/13 6/7/14 19/23/15 21/8/16
f 5/91/17 4/9/18 9/140/19 8/92/20
f 7/11/21 9/10/22 15/141/23 14/93/24
f 8/92/25 7/11/26 12/14/27 11/12/28
f 10/13/29 12/14/30 17/19/31 16/15/32
f 13/18/33 15/16/34 21/17/35 20/94/36
f 14/93/37 13/18/38 18/21/39 17/19/40
f 16/20/41 18/21/42 23/25/43 22/22/44
f 20/94/45 19/23/46 24/24/47 23/25/48
f 25/26/49 27/104/50 42/159/51 41/27/52
usemtl phong2SG
f 26/29/53 25/28/54 30/142/55 29/101/56
f 27/104/57 26/29/58 35/37/59 34/105/60
usemtl initialShadingGroup1
f 28/32/61 30/30/62 63/31/63 62/117/64
usemtl phong2SG
f 29/101/65 28/32/66 33/143/67 32/102/68
usemtl initialShadingGroup1
f 31/33/69 33/34/70 57/35/71 59/113/72
usemtl phong2SG
f 32/102/73 31/36/74 36/144/75 35/37/76
usemtl initialShadingGroup1
f 34/105/77 36/38/78 39/145/79 38/103/80
s 1
f 37/39/81 40/108/82 47/45/83 50/41/84
s 2
f 44/40/85 46/127/86 67/150/87 66/55/88
s 3
f 45/42/89 44/40/90 50/41/91 49/106/92
s off
f 46/147/93 45/42/94 55/51/95 54/43/96
f 48/44/97 47/45/98 69/60/99 68/112/100
f 49/106/101 48/46/102 53/148/103 52/107/104
f 51/47/105 53/48/106 72/62/107 71/49/108
f 52/107/109 51/50/110 56/53/111 55/51/112
f 54/52/113 56/53/114 75/65/115 74/54/116
s 1
f 61/110/117 60/119/118 66/55/119 65/111/120
s off
f 64/56/121 67/57/122 74/58/123 76/64/124
f 65/111/125 64/59/126 70/151/127 69/60/128
f 68/112/129 70/61/130 73/152/131 72/62/132
f 71/116/133 73/63/134 76/64/135 75/65/136
s 4
f 77/66/137 79/67/138 98/68/139 100/89/140
f 78/70/141 77/69/137 82/153/142 81/129/143
f 79/136/138 78/70/141 87/77/144 86/137/145
f 80/71/146 82/72/142 95/88/147 97/73/148
f 81/129/143 80/74/146 85/154/149 84/130/150
s off
f 83/76/151 85/75/152 91/155/153 90/131/154
f 84/130/155 83/76/156 88/79/157 87/77/158
f 86/78/159 88/79/160 93/84/161 92/80/162
s 5
f 89/83/163 91/81/164 97/82/165 96/132/166
s off
f 90/131/167 89/83/168 94/86/169 93/84/170
s 5
f 92/85/171 94/86/172 99/90/173 98/87/174
f 96/132/166 95/88/175 100/89/176 99/90/173
s off
f 2/5/177 5/91/178 8/92/179 11/12/180
f 12/14/181 7/11/182 14/93/183 17/19/184
f 18/21/185 13/18/186 20/94/187 23/25/188
f 24/24/189 19/23/190 6/7/191 1/1/192
f 4/9/193 21/95/194 15/96/195 9/140/196
f 22/97/197 3/98/198 10/99/199 16/100/200
usemtl phong2SG
f 26/29/201 29/101/202 32/102/203 35/37/204
usemtl initialShadingGroup1
f 38/103/205 42/159/206 27/104/207 34/105/208
f 45/42/209 49/106/210 52/107/211 55/51/212
s 1
f 40/108/82 104/169/213 58/109/214 103/168/215 61/110/117 65/111/120 69/60/216 47/45/83
s off
f 68/112/217 72/62/218 53/48/219 48/44/220
f 59/113/221 39/114/222 36/115/223 31/33/224
f 56/53/225 51/50/226 71/116/227 75/65/228
f 62/117/229 57/118/230 33/143/231 28/32/232
s 1
f 66/55/119 60/119/118 102/167/233 43/120/234 101/164/235 37/39/81 50/41/84 44/40/236
s off
f 76/64/237 73/63/238 70/121/239 64/56/240
f 41/122/241 63/123/242 30/124/243 25/125/244
f 74/126/245 67/150/246 46/127/247 54/128/248
f 78/70/249 81/129/250 84/130/251 87/77/252
f 88/79/253 83/76/254 90/131/255 93/84/256
f 94/86/257 89/83/258 96/132/259 99/90/260
f 100/89/261 95/88/262 82/72/263 77/66/264
f 80/74/265 97/133/266 91/134/267 85/154/268
f 98/135/269 79/136/270 86/137/271 92/138/272
f 1/4/273 2/5/274 3/98/275
f 4/9/276 5/91/277 6/139/278
f 7/11/279 8/92/280 9/140/281
f 10/99/282 11/12/283 12/14/284
f 13/18/285 14/93/286 15/141/287
f 16/15/288 17/19/289 18/21/290
f 19/23/291 20/94/292 21/17/293
f 22/22/294 23/25/295 24/24/296
usemtl phong2SG
f 25/28/297 26/29/298 27/104/299
f 28/32/300 29/101/301 30/142/302
f 31/36/303 32/102/304 33/143/305
f 34/105/306 35/37/307 36/144/308
s 7
usemtl initialShadingGroup1
f 37/156/309 38/103/310 39/145/311 40/146/312
s off
f 44/40/313 45/42/314 46/147/315
s 3
f 47/45/316 48/46/317 49/106/92 50/41/91
s off
f 51/50/318 52/107/319 53/148/320
f 54/43/321 55/51/322 56/53/323
s 8
f 60/119/324 61/110/325 62/160/326 63/149/327
s 2
f 64/59/328 65/111/329 66/55/88 67/150/87
s off
f 68/112/330 69/60/331 70/151/332
f 71/49/333 72/62/334 73/152/335
f 74/54/336 75/65/337 76/64/338
s 4
f 77/69/137 78/70/141 79/136/138
f 80/74/146 81/129/143 82/153/142
s off
f 83/76/339 84/130/340 85/154/341
f 86/137/342 87/77/343 88/79/344
f 89/83/345 90/131/346 91/155/347
f 92/80/348 93/84/349 94/86/350
s 5
f 95/88/175 96/132/166 97/82/165
f 98/87/174 99/90/173 100/89/176
s off
f 38/103/351 37/156/352 101/165/353 42/159/354
f 41/157/355 102/167/356 60/119/357 63/158/358
s 1
f 43/120/234 102/167/233 101/164/235
s off
f 41/27/359 42/159/360 101/165/361 102/166/362
s 8
f 57/163/363 62/160/326 61/110/325 103/168/364
s 7
f 40/108/312 39/161/311 59/162/365 104/169/366
s 1
f 58/109/214 104/169/213 103/168/215
s off
f 57/163/367 103/168/368 104/169/369 59/162/370
