# This file uses centimeters as units for non-parametric coordinates.

mtllib pizarron.mtl
g default
v -3.184836 -0.616393 0.225533
v 3.184836 -0.616393 0.225533
v -3.184836 -0.445594 0.225533
v 3.184836 -0.445594 0.225533
v -3.184836 -0.445594 -0.094715
v 3.184836 -0.445594 -0.094715
v -3.184836 -0.616393 -0.094715
v 3.184836 -0.616393 -0.094715
v -2.850000 1.308225 0.001099
v -2.850000 -0.361775 0.001099
v 2.850000 -0.361775 0.001099
v 2.850000 1.308225 0.001099
v 2.850000 1.308225 0.088889
v -2.850000 1.308225 0.088889
v -3.005555 1.453022 0.088889
v 3.005555 1.453022 0.088889
v 3.005555 1.453022 -0.088889
v -3.005555 1.453022 -0.088889
v 2.850000 -0.361775 0.088889
v -2.850000 -0.361775 0.088889
v -3.005555 -0.824756 0.088889
v 3.005555 -0.824756 0.088889
v 3.005555 -0.824756 -0.088889
v -3.005555 -0.824756 -0.088889
v -3.049198 -0.858852 0.135508
v 3.052030 -0.858852 0.135508
v -3.180677 -0.615563 0.224000
v 3.184315 -0.615563 0.223999
v -3.180677 -0.615563 -0.091535
v 3.184315 -0.615563 -0.091535
v -3.049198 -0.858852 -0.091535
v 3.052030 -0.858852 -0.091535
vt 0.375000 0.000000
vt 0.625000 0.000000
vt 0.375000 0.250000
vt 0.625000 0.250000
vt 0.375000 0.500000
vt 0.625000 0.500000
vt 0.375000 0.750000
vt 0.625000 0.750000
vt 0.375000 1.000000
vt 0.625000 1.000000
vt 0.875000 0.000000
vt 0.875000 0.250000
vt 0.125000 0.000000
vt 0.125000 0.250000
vt 0.375000 0.500000
vt 0.375000 0.750000
vt 0.625000 0.750000
vt 0.625000 0.500000
vt 0.625000 0.449352
vt 0.375000 0.449352
vt 0.375000 0.250000
vt 0.625000 0.250000
vt 0.625000 0.500000
vt 0.375000 0.500000
vt 0.618531 0.234108
vt 0.618531 0.050815
vt 0.381469 0.050815
vt 0.375000 0.000000
vt 0.625000 0.000000
vt 0.875000 0.000000
vt 0.875000 0.250000
vt 0.824352 0.000000
vt 0.824352 0.250000
vt 0.875000 0.250000
vt 0.875000 0.000000
vt 0.625000 0.750000
vt 0.375000 0.750000
vt 0.375000 0.800648
vt 0.625000 0.800648
vt 0.381469 0.234108
vt 0.625000 1.000000
vt 0.375000 1.000000
vt 0.175648 0.250000
vt 0.175648 0.000000
vt 0.125000 0.000000
vt 0.125000 0.250000
vt 0.125000 0.000000
vt 0.125000 0.250000
vt 0.375000 0.000000
vt 0.625000 0.000000
vt 0.625000 0.250000
vt 0.375000 0.250000
vt 0.625000 0.500000
vt 0.375000 0.500000
vt 0.625000 0.750000
vt 0.375000 0.750000
vt 0.625000 1.000000
vt 0.375000 1.000000
vt 0.875000 0.000000
vt 0.875000 0.250000
vt 0.125000 0.000000
vt 0.125000 0.250000
vn 0.000000 0.000000 1.000000
vn 0.000000 0.000000 1.000000
vn 0.000000 0.000000 1.000000
vn 0.000000 0.000000 1.000000
vn 0.000000 1.000000 0.000000
vn 0.000000 1.000000 0.000000
vn 0.000000 1.000000 0.000000
vn 0.000000 1.000000 0.000000
vn 0.000000 0.000000 -1.000000
vn 0.000000 0.000000 -1.000000
vn 0.000000 0.000000 -1.000000
vn 0.000000 0.000000 -1.000000
vn 0.000000 -1.000000 0.000000
vn 0.000000 -1.000000 0.000000
vn 0.000000 -1.000000 0.000000
vn 0.000000 -1.000000 0.000000
vn 1.000000 0.000000 0.000000
vn 1.000000 0.000000 0.000000
vn 1.000000 0.000000 0.000000
vn 1.000000 0.000000 0.000000
vn -1.000000 0.000000 0.000000
vn -1.000000 0.000000 0.000000
vn -1.000000 0.000000 0.000000
vn -1.000000 0.000000 0.000000
vn 0.000000 0.000000 1.000000
vn 0.000000 0.000000 1.000000
vn 0.000000 0.000000 1.000000
vn 0.000000 0.000000 1.000000
vn 0.000000 -1.000000 0.000000
vn 0.000000 -1.000000 0.000000
vn 0.000000 -1.000000 0.000000
vn 0.000000 -1.000000 0.000000
vn 0.000000 1.000000 0.000000
vn 0.000000 1.000000 0.000000
vn 0.000000 1.000000 0.000000
vn 0.000000 1.000000 0.000000
vn 0.000000 0.000000 1.000000
vn 0.000000 0.000000 1.000000
vn 0.000000 0.000000 1.000000
vn 0.000000 0.000000 1.000000
vn 0.000000 0.000000 1.000000
vn 0.000000 0.000000 1.000000
vn 1.000000 0.000000 0.000000
vn 1.000000 0.000000 0.000000
vn 1.000000 0.000000 0.000000
vn 1.000000 0.000000 0.000000
vn -1.000000 0.000000 0.000000
vn -1.000000 0.000000 0.000000
vn -1.000000 0.000000 0.000000
vn -1.000000 0.000000 0.000000
vn 0.000000 0.000000 -1.000000
vn 0.000000 0.000000 -1.000000
vn 0.000000 0.000000 -1.000000
vn 0.000000 0.000000 -1.000000
vn 0.000000 1.000000 0.000000
vn 0.000000 1.000000 0.000000
vn 0.000000 1.000000 0.000000
vn 0.000000 1.000000 0.000000
vn 0.000000 0.000000 1.000000
vn 0.000000 0.000000 1.000000
vn 0.000000 -1.000000 0.000000
vn 0.000000 -1.000000 0.000000
vn 0.000000 -1.000000 0.000000
vn 0.000000 -1.000000 0.000000
vn 1.000000 0.000000 0.000000
vn 1.000000 0.000000 0.000000
vn 1.000000 0.000000 0.000000
vn 1.000000 0.000000 0.000000
vn -1.000000 0.000000 0.000000
vn -1.000000 0.000000 0.000000
vn -1.000000 0.000000 0.000000
vn -1.000000 0.000000 0.000000
vn 0.000000 -0.341822 0.939765
vn 0.000000 -0.341822 0.939765
vn 0.000000 -0.341822 0.939765
vn 0.000000 -0.341822 0.939765
vn 0.000000 1.000000 0.000000
vn 0.000000 1.000000 0.000000
vn 0.000000 1.000000 0.000000
vn 0.000000 1.000000 0.000000
vn 0.000000 0.000000 -1.000000
vn 0.000000 0.000000 -1.000000
vn 0.000000 0.000000 -1.000000
vn 0.000000 0.000000 -1.000000
vn 0.000000 -1.000000 0.000000
vn 0.000000 -1.000000 0.000000
vn 0.000000 -1.000000 0.000000
vn 0.000000 -1.000000 0.000000
vn 0.878530 -0.477687 -0.000000
vn 0.878530 -0.477687 -0.000000
vn 0.878530 -0.477687 -0.000000
vn 0.878530 -0.477687 -0.000000
vn -0.879749 -0.475438 0.000000
vn -0.879749 -0.475438 0.000000
vn -0.879749 -0.475438 0.000000
vn -0.879749 -0.475438 0.000000
s off
g pCube7
usemtl initialShadingGroup
f 1/1/1 2/2/2 4/4/3 3/3/4
f 3/3/5 4/4/6 6/6/7 5/5/8
f 5/5/9 6/6/10 8/8/11 7/7/12
f 7/7/13 8/8/14 2/10/15 1/9/16
f 2/2/17 8/11/18 6/12/19 4/4/20
f 7/13/21 1/1/22 3/3/23 5/14/24
f 9/15/25 10/16/26 11/17/27 12/18/28
f 13/19/29 14/20/30 9/15/31 12/18/32
f 15/21/33 16/22/34 17/23/35 18/24/36
s 1
f 13/25/37 19/26/38 20/27/39 21/28/40 22/29/41 16/22/42
s off
f 22/29/43 23/30/44 17/31/45 16/22/46
f 19/32/47 13/33/48 12/34/49 11/35/50
f 18/24/51 17/23/52 23/36/53 24/37/54
f 20/38/55 19/39/56 11/17/57 10/16/58
s 1
f 21/28/40 20/27/39 14/40/59 13/25/37 16/22/42 15/21/60
s off
f 24/37/61 23/36/62 22/41/63 21/42/64
f 14/43/65 20/44/66 10/45/67 9/46/68
f 24/47/69 21/28/70 15/21/71 18/48/72
f 25/49/73 26/50/74 28/51/75 27/52/76
f 27/52/77 28/51/78 30/53/79 29/54/80
f 29/54/81 30/53/82 32/55/83 31/56/84
f 31/56/85 32/55/86 26/57/87 25/58/88
f 26/50/89 32/59/90 30/60/91 28/51/92
f 31/61/93 25/49/94 27/52/95 29/62/96
